<?xml version="1.0" encoding="UTF-8" standalone="no"?>
<!-- Created with Inkscape (http://www.inkscape.org/) -->

<svg
   version="1.1"
   id="svg1"
   width="4765"
   height="4765"
   viewBox="0 0 4765 4765"
   sodipodi:docname="Ibidem_logo_nuevo_negro.svg"
   inkscape:version="1.4.2 (f4327f4, 2025-05-13)"
   xmlns:inkscape="http://www.inkscape.org/namespaces/inkscape"
   xmlns:sodipodi="http://sodipodi.sourceforge.net/DTD/sodipodi-0.dtd"
   xmlns="http://www.w3.org/2000/svg"
   xmlns:svg="http://www.w3.org/2000/svg">
  <defs
     id="defs1" />
  <sodipodi:namedview
     id="namedview1"
     pagecolor="#ffffff"
     bordercolor="#000000"
     borderopacity="0.25"
     inkscape:showpageshadow="2"
     inkscape:pageopacity="0.0"
     inkscape:pagecheckerboard="0"
     inkscape:deskcolor="#d1d1d1"
     showgrid="false"
     inkscape:zoom="0.12094271"
     inkscape:cx="2732.6988"
     inkscape:cy="2699.6253"
     inkscape:window-width="1920"
     inkscape:window-height="1017"
     inkscape:window-x="-8"
     inkscape:window-y="-8"
     inkscape:window-maximized="1"
     inkscape:current-layer="g1" />
  <g
     inkscape:groupmode="layer"
     inkscape:label="Image"
     id="g1">
    <path
       style="fill:#333333;fill-opacity:1"
       d="m 743.38875,3053.5784 c -15.45292,-3.5303 -23.45705,-12.1962 -25.28438,-27.3748 -2.35273,-19.5428 5.16004,-44.404 20.24939,-67.0091 6.12856,-9.1812 8.53611,-14.8968 12.17644,-28.9077 4.40242,-16.944 7.3217,-35.3954 23.46104,-148.2868 26.92546,-188.3379 45.85556,-329.8717 48.48426,-362.5 2.24165,-27.8242 9.11498,-84.8284 52.08876,-432 43.33224,-350.0675 42.43565,-342.3549 42.43107,-365 -0.005,-26.6213 -3.54748,-60.3227 -8.55392,-81.3866 -4.15576,-17.4848 -5.2858,-19.202 -21.60982,-32.8364 -16.21142,-13.5405 -22.78449,-22.6639 -23.62427,-32.7905 -1.66084,-20.0276 14.05702,-41.9016 39.79268,-55.3783 14.80675,-7.7537 25.37607,-10.3717 67,-16.5957 24.97113,-3.734 34.0528,-5.9309 87.1255,-21.0763 58.5092,-16.6968 69.2699,-19.4362 76.3476,-19.4362 15.5774,0 38.4688,14.0062 45.1243,27.6096 5.11,10.4445 2.2631,19.824 -14.4991,47.7675 -16.1846,26.9807 -21.4742,40.1682 -25.5527,63.7047 -15.3672,88.6842 -65.4366,494.0567 -140.51504,1137.6411 -18.4958,158.5489 -20.02086,174.0487 -20.00086,203.2771 0.0194,28.4088 1.62777,33.6594 15.00958,49 23.86052,27.3532 32.62232,44.1329 31.77602,60.8539 -0.4958,9.7972 -2.4925,13.9179 -10.7652,22.2175 -19.72719,19.7913 -74.48659,46.1296 -121.5501,58.4636 -25.49708,6.682 -65.33003,14.8737 -90.28397,18.5669 -17.96923,2.6595 -50.11712,3.4664 -58.82728,1.4765 z m 663.95795,-18.6075 c -25.1304,-4.5187 -42.3624,-25.145 -49.0058,-58.6589 -2.4678,-12.4495 -2.4756,-42.401 -0.014,-54.6659 2.4706,-12.3108 7.798,-26.6631 12.6766,-34.151 14.0536,-21.5703 33.0778,-27.8039 63.3382,-20.7539 l 11.8415,2.7588 -0.706,23.5 c -0.3884,12.925 -0.8795,23.6875 -1.0915,23.9167 -1.0366,1.1206 -1.8638,-1.6819 -2.518,-8.5303 -1.9111,-20.0079 -12.0787,-30.6677 -29.3674,-30.789 -11.6823,-0.082 -17.1922,4.024 -23.3874,17.4282 -3.8706,8.3745 -6.0652,19.3506 -7.0429,35.2244 -2.6516,43.0484 7.3044,77.2794 25.0484,86.1215 9.8567,4.9119 23.0212,3.0054 29.0956,-4.2136 3.2156,-3.8216 6.3068,-11.87 7.2615,-18.9068 0.6993,-5.1542 2.4137,-8.1158 2.6398,-4.5601 0.2709,4.2601 -0.3896,15.6769 -1.576,27.2431 -1.1074,10.7955 -1.5695,12.6722 -3.5066,14.2408 -5.2668,4.2647 -22.7762,6.7576 -33.6857,4.796 z m 570,0 c -25.1304,-4.5187 -42.3624,-25.145 -49.0058,-58.6589 -2.4678,-12.4495 -2.4756,-42.401 -0.014,-54.6659 2.4706,-12.3108 7.798,-26.6631 12.6766,-34.151 14.0536,-21.5703 33.0778,-27.8039 63.3382,-20.7539 l 11.8415,2.7588 -0.706,23.5 c -0.3884,12.925 -0.8795,23.6875 -1.0915,23.9167 -1.0366,1.1206 -1.8638,-1.6819 -2.518,-8.5303 -1.9111,-20.0079 -12.0787,-30.6677 -29.3674,-30.789 -11.6823,-0.082 -17.1922,4.024 -23.3874,17.4282 -3.8706,8.3745 -6.0652,19.3506 -7.0429,35.2244 -2.6516,43.0484 7.3044,77.2794 25.0484,86.1215 9.8567,4.9119 23.0212,3.0054 29.0956,-4.2136 3.2156,-3.8216 6.3068,-11.87 7.2615,-18.9068 0.6993,-5.1542 2.4137,-8.1158 2.6398,-4.5601 0.2709,4.2601 -0.3896,15.6769 -1.576,27.2431 -1.1074,10.7955 -1.5695,12.6722 -3.5066,14.2408 -5.2668,4.2647 -22.7762,6.7576 -33.6857,4.796 z m 246.8296,-0.041 c -5.5989,-1.1018 -14.1434,-5.0342 -18.7031,-8.6076 -4.4226,-3.466 -11.8063,-13.0744 -15.2214,-19.8077 -19.5528,-38.5503 -14.7069,-101.7129 9.8146,-127.9265 10.4369,-11.1571 20.0252,-15.1206 34.8353,-14.3999 17.5917,0.8561 30.8678,11.1952 40.3602,31.4314 6.7075,14.2994 8.9245,25.178 9.4522,46.3803 0.6919,27.8013 -2.9205,46.9421 -12.2557,64.9384 -8.0704,15.5581 -18.2833,24.4968 -31.3966,27.4793 -7.5739,1.7227 -10.3127,1.8058 -16.8855,0.5123 z m 20.6484,-16.654 c 5.1967,-4.1751 9.7353,-13.8386 12.3409,-26.276 1.9012,-9.0748 2.207,-13.7577 2.2531,-34.5 0.055,-24.6753 -0.692,-32.5286 -4.5553,-47.9077 -5.091,-20.2658 -15.15,-32.6244 -26.5145,-32.5758 -11.7125,0.05 -19.5608,11.7813 -22.9605,34.3204 -1.8487,12.2561 -2.0418,42.9598 -0.3564,56.6631 2.4418,19.8535 8.7678,38.1467 16.0661,46.4589 7.0342,8.0116 16.592,9.5492 23.7266,3.8171 z m 188.5367,14.5135 c -4.8179,-5.1 -28.9933,-41.9475 -53.6614,-81.7895 l -13.9308,-22.5 0.6955,43.5 c 0.3825,23.925 1.0698,45.5113 1.5273,47.9694 0.9499,5.1043 3.8638,8.0306 7.9963,8.0306 3.3347,0 5.694,2.2687 3.774,3.6291 -0.6943,0.492 -9.5831,0.8791 -19.7529,0.8604 -16.557,-0.031 -18.5247,-0.2111 -18.8164,-1.7261 -0.2249,-1.1677 0.5468,-1.8794 2.4906,-2.2969 5.6386,-1.2111 7.1919,-2.3571 8.359,-6.1675 0.811,-2.6476 1.3903,-26.8324 1.9115,-79.799 0.4114,-41.8 1.0881,-76.7875 1.5039,-77.75 1.145,-2.6505 2.0602,-2.1789 5.8215,3 3.497,4.815 36.0959,56.2618 55.8973,88.2157 l 10.8232,17.4657 -0.033,-41.9657 c -0.044,-55.909 -0.4753,-58.7238 -9.2217,-60.1224 -3.4928,-0.5585 -5.8306,-2.5917 -4.5046,-3.9176 0.3728,-0.3728 28.8824,-0.7406 36.5823,-0.4719 2.9334,0.1024 0.4731,3.4241 -3.3233,4.4869 -6.6823,1.8707 -6.5415,0.4305 -7.532,77.0593 -0.4835,37.4 -0.8991,71.6265 -0.9235,76.0589 -0.027,4.8534 -0.5479,8.7472 -1.31,9.7895 -1.1628,1.5903 -1.5177,1.4638 -4.3731,-1.5589 z m 450.1386,2.5614 c -6.4727,-0.9672 -12.5282,-3.5957 -14.9705,-6.4982 -2.4715,-2.9372 -2.5293,-3.3655 -2.5208,-18.6794 0.01,-16.5085 0.7596,-26.1733 2.0324,-26.1733 0.4194,0 1.0617,2.8125 1.4273,6.25 2.0897,19.6465 10.718,31.7563 22.6195,31.7463 10.1302,-0.01 15.2157,-7.365 15.1087,-21.8557 -0.057,-7.6605 -0.4078,-9.1726 -3.6151,-15.5628 -1.9538,-3.8928 -6.9834,-11.1278 -11.1767,-16.0778 -18.441,-21.7684 -24.4048,-36.1687 -24.4048,-58.928 0,-20.8045 7.8266,-37.305 20.5,-43.2192 6.6625,-3.1091 18.5667,-3.2543 27.0662,-0.33 3.2337,1.1125 6.2696,2.413 6.7465,2.8899 1.0147,1.0147 -0.2462,39.0873 -1.2945,39.0873 -0.3887,0 -1.2217,-3.6424 -1.8513,-8.0943 -2.0584,-14.5553 -8.9785,-23.0587 -18.8867,-23.2079 -9.5296,-0.1434 -14.5525,6.8327 -14.487,20.1206 0.063,12.8543 1.8115,16.2581 18.7068,36.425 13.5379,16.1593 18.4224,26.2184 20.5709,42.3633 3.3751,25.3629 -5.6198,49.2163 -21.4294,56.8277 -5.151,2.4799 -14.2477,3.7971 -20.1415,2.9165 z m 285.6763,-0.4209 c -5.5989,-1.1018 -14.1434,-5.0342 -18.7031,-8.6076 -4.4226,-3.466 -11.8063,-13.0744 -15.2214,-19.8077 -19.5528,-38.5503 -14.7069,-101.7129 9.8146,-127.9265 10.4369,-11.1571 20.0252,-15.1206 34.8353,-14.3999 17.5917,0.8561 30.8678,11.1952 40.3602,31.4314 6.7075,14.2994 8.9245,25.178 9.4522,46.3803 0.6919,27.8013 -2.9205,46.9421 -12.2557,64.9384 -8.0704,15.5581 -18.2833,24.4968 -31.3966,27.4793 -7.5739,1.7227 -10.3127,1.8058 -16.8855,0.5123 z m 20.6484,-16.654 c 5.1967,-4.1751 9.7353,-13.8386 12.3409,-26.276 1.9012,-9.0748 2.207,-13.7577 2.2531,-34.5 0.055,-24.6753 -0.692,-32.5286 -4.5553,-47.9077 -5.091,-20.2658 -15.15,-32.6244 -26.5145,-32.5758 -11.7125,0.05 -19.5608,11.7813 -22.9605,34.3204 -1.8487,12.2561 -2.0418,42.9598 -0.3564,56.6631 2.4418,19.8535 8.7678,38.1467 16.0661,46.4589 7.0342,8.0116 16.592,9.5492 23.7266,3.8171 z m 401.522,16.6949 c -25.1304,-4.5187 -42.3624,-25.145 -49.0058,-58.6589 -2.4678,-12.4495 -2.4756,-42.401 -0.014,-54.6659 2.4706,-12.3108 7.798,-26.6631 12.6766,-34.151 14.0536,-21.5703 33.0778,-27.8039 63.3382,-20.7539 l 11.8415,2.7588 -0.706,23.5 c -0.3884,12.925 -0.8795,23.6875 -1.0915,23.9167 -1.0366,1.1206 -1.8638,-1.6819 -2.518,-8.5303 -1.9111,-20.0079 -12.0787,-30.6677 -29.3674,-30.789 -11.6823,-0.082 -17.1922,4.024 -23.3874,17.4282 -3.8706,8.3745 -6.0652,19.3506 -7.0429,35.2244 -2.6516,43.0484 7.3044,77.2794 25.0484,86.1215 9.8567,4.9119 23.0212,3.0054 29.0956,-4.2136 3.2156,-3.8216 6.3068,-11.87 7.2615,-18.9068 0.6993,-5.1542 2.4137,-8.1158 2.6398,-4.5601 0.2709,4.2601 -0.3896,15.6769 -1.576,27.2431 -1.1074,10.7955 -1.5695,12.6722 -3.5066,14.2408 -5.2668,4.2647 -22.7762,6.7576 -33.6857,4.796 z m -2513.0625,-3.673 c -0.7296,-1.9008 0.6274,-3.2979 3.2034,-3.2979 2.8705,0 5.2489,-2.2109 6.2609,-5.8199 0.4133,-1.4741 0.7515,-34.6497 0.7515,-73.7237 0,-66.1705 -0.1209,-71.2282 -1.7626,-73.7341 -0.9695,-1.4798 -2.9945,-2.9495 -4.5,-3.266 -1.5056,-0.3165 -3.3606,-0.9025 -4.1222,-1.3022 -4.0921,-2.1476 1.2298,-2.6541 27.8848,-2.6541 27.9225,0 28.596,0.048 33.2383,2.3546 21.2792,10.5744 23.9426,52.9584 4.8366,76.9674 l -4.2352,5.322 7.24,17.678 c 17.2972,42.2349 26.2019,58.178 32.494,58.178 1.1998,0 2.6758,0.5957 3.2801,1.3238 2.1214,2.5562 -0.8849,3.6771 -9.8038,3.6554 -11.2882,-0.028 -19.9817,-1.927 -24.4627,-5.3448 -4.7934,-3.6561 -10.6335,-15.9221 -19.0287,-39.9656 -3.6163,-10.3571 -7.0372,-19.6946 -7.6021,-20.75 -0.8054,-1.505 -2.1219,-1.9188 -6.1049,-1.9188 h -5.078 l 0.4402,27.75 c 0.3134,19.7539 0.81,28.5106 1.7235,30.3897 1.3312,2.7385 4.8182,4.8603 7.9873,4.8603 2.5854,0 4.5913,2.5526 2.874,3.6572 -2.1661,1.3932 -44.9714,1.0553 -45.5144,-0.3593 z m 50.4165,-82.5479 c 3.1672,-3.4772 3.9876,-5.6365 5.3376,-14.0479 1.7282,-10.7678 0.7533,-29.1663 -2.013,-37.9881 -1.5631,-4.9847 -3.2784,-7.9866 -6.4622,-11.3094 -4.1189,-4.2988 -4.5759,-4.5082 -9.1987,-4.2141 l -4.8644,0.3095 -0.2634,33.211 -0.2635,33.211 2.7635,1.499 c 1.5199,0.8244 5.0475,1.5169 7.8391,1.539 4.0214,0.032 5.5014,-0.4274 7.125,-2.21 z m 97.72,83.3333 c -1.4044,-1.3909 0.1048,-3.1477 3.4862,-4.0582 3.021,-0.8135 4.199,-1.7859 5.1954,-4.2886 0.9916,-2.4905 1.3779,-18.5645 1.676,-69.7365 0.213,-36.575 0.095,-69.2601 -0.2626,-72.6335 -0.7316,-6.9043 -3.0982,-10.3665 -7.086,-10.3665 -2.2489,0 -4.3859,-2.3772 -3.2016,-3.5614 0.2614,-0.2614 15.4265,-0.5795 33.7003,-0.7069 l 33.2251,-0.2317 -0.5469,6.5 c -0.3007,3.575 -0.8297,11.7875 -1.1754,18.25 -0.3457,6.4625 -0.976,11.75 -1.4006,11.75 -0.4247,0 -1.0878,-3.2029 -1.4735,-7.1176 -0.9257,-9.394 -2.856,-11.4394 -11.6671,-12.3631 -3.5145,-0.3684 -8.865,-0.5234 -11.89,-0.3446 l -5.5,0.3253 -0.2818,24 c -0.1549,13.2 -0.034,25.0125 0.2691,26.25 0.5306,2.1674 0.9447,2.2463 11.2818,2.1503 13.4918,-0.1253 15.3674,-0.6366 17.1614,-4.6778 0.7867,-1.7724 1.7434,-3.2225 2.1259,-3.2225 0.7145,0 0.1248,39.454 -0.6249,41.8134 -0.8665,2.7268 -2.4315,-0.1081 -2.4315,-4.4045 0,-5.3303 -2.1212,-10.8786 -4.6653,-12.2029 -1.0091,-0.5252 -6.4299,-1.2713 -12.0462,-1.6579 l -10.2115,-0.7029 -0.6633,2.6426 c -0.3648,1.4535 -0.4636,14.4258 -0.2195,28.8274 0.4947,29.1846 0.9725,31.5015 6.9246,33.5764 4.5474,1.5852 14.1926,1.3677 18.6626,-0.4208 4.8245,-1.9304 6.7815,-5.248 8.2669,-14.0148 1.7665,-10.4254 2.9541,-10.185 2.9344,0.594 -0.022,11.9676 -1.6912,28.0599 -3.0511,29.414 -0.9958,0.9915 -65.5284,1.5924 -66.5109,0.6193 z m 278.8635,-0.7854 c -0.7296,-1.9008 0.6274,-3.2979 3.2034,-3.2979 2.8705,0 5.2489,-2.2109 6.2609,-5.8199 0.4133,-1.4741 0.7515,-34.6497 0.7515,-73.7237 0,-66.1705 -0.1209,-71.2282 -1.7626,-73.7341 -0.9695,-1.4798 -2.9945,-2.9495 -4.5,-3.266 -1.5056,-0.3165 -3.3606,-0.9025 -4.1222,-1.3022 -4.0921,-2.1476 1.2298,-2.6541 27.8848,-2.6541 27.9225,0 28.596,0.048 33.2383,2.3546 21.2792,10.5744 23.9426,52.9584 4.8366,76.9674 l -4.2352,5.322 7.24,17.678 c 17.2972,42.2349 26.2019,58.178 32.494,58.178 1.1998,0 2.6758,0.5957 3.2801,1.3238 2.1214,2.5562 -0.8849,3.6771 -9.8038,3.6554 -11.2882,-0.028 -19.9817,-1.927 -24.4627,-5.3448 -4.7934,-3.6561 -10.6335,-15.9221 -19.0287,-39.9656 -3.6163,-10.3571 -7.0372,-19.6946 -7.6021,-20.75 -0.8054,-1.505 -2.1219,-1.9188 -6.1049,-1.9188 h -5.078 l 0.4402,27.75 c 0.3134,19.7539 0.81,28.5106 1.7235,30.3897 1.3312,2.7385 4.8182,4.8603 7.9873,4.8603 2.5854,0 4.5913,2.5526 2.874,3.6572 -2.1661,1.3932 -44.9714,1.0553 -45.5144,-0.3593 z m 50.4165,-82.5479 c 3.1672,-3.4772 3.9876,-5.6365 5.3376,-14.0479 1.7282,-10.7678 0.7533,-29.1663 -2.013,-37.9881 -1.5631,-4.9847 -3.2784,-7.9866 -6.4622,-11.3094 -4.1189,-4.2988 -4.5759,-4.5082 -9.1987,-4.2141 l -4.8644,0.3095 -0.2634,33.211 -0.2635,33.211 2.7635,1.499 c 1.5199,0.8244 5.0475,1.5169 7.8391,1.539 4.0214,0.032 5.5014,-0.4274 7.125,-2.21 z m 97.72,83.3333 c -1.4044,-1.3909 0.1048,-3.1477 3.4862,-4.0582 3.021,-0.8135 4.199,-1.7859 5.1954,-4.2886 0.9916,-2.4905 1.3779,-18.5645 1.676,-69.7365 0.213,-36.575 0.095,-69.2601 -0.2626,-72.6335 -0.7316,-6.9043 -3.0982,-10.3665 -7.086,-10.3665 -2.2489,0 -4.3859,-2.3772 -3.2016,-3.5614 0.2614,-0.2614 15.4265,-0.5795 33.7003,-0.7069 l 33.2251,-0.2317 -0.5469,6.5 c -0.3007,3.575 -0.8297,11.7875 -1.1754,18.25 -0.3457,6.4625 -0.976,11.75 -1.4006,11.75 -0.4247,0 -1.0878,-3.2029 -1.4735,-7.1176 -0.9257,-9.394 -2.856,-11.4394 -11.6671,-12.3631 -3.5145,-0.3684 -8.865,-0.5234 -11.89,-0.3446 l -5.5,0.3253 -0.2818,24 c -0.1549,13.2 -0.034,25.0125 0.2691,26.25 0.5306,2.1674 0.9447,2.2463 11.2818,2.1503 13.4918,-0.1253 15.3674,-0.6366 17.1614,-4.6778 0.7867,-1.7724 1.7434,-3.2225 2.1259,-3.2225 0.7145,0 0.1248,39.454 -0.6249,41.8134 -0.8665,2.7268 -2.4315,-0.1081 -2.4315,-4.4045 0,-5.3303 -2.1212,-10.8786 -4.6653,-12.2029 -1.0091,-0.5252 -6.4299,-1.2713 -12.0462,-1.6579 l -10.2115,-0.7029 -0.6633,2.6426 c -0.3648,1.4535 -0.4636,14.4258 -0.2195,28.8274 0.4947,29.1846 0.9725,31.5015 6.9246,33.5764 4.5474,1.5852 14.1926,1.3677 18.6626,-0.4208 4.8245,-1.9304 6.7815,-5.248 8.2669,-14.0148 1.7665,-10.4254 2.9541,-10.185 2.9344,0.594 -0.022,11.9676 -1.6912,28.0599 -3.0511,29.414 -0.9958,0.9915 -65.5284,1.5924 -66.5109,0.6193 z m 118.8751,-0.7549 c -0.7737,-2.0162 0.6412,-3.3284 3.5889,-3.3284 3.3705,0 6.3446,-2.9851 8.9791,-9.0125 1.0789,-2.4681 9.679,-34.6375 19.1115,-71.4875 18.2559,-71.3206 21.4729,-83.0409 23.0631,-84.0237 0.5519,-0.3411 1.6758,0.9888 2.4975,2.9555 0.8218,1.9666 8.9313,32.4865 18.0213,67.8219 9.09,35.3355 17.4764,67.8463 18.6366,72.2463 4.0013,15.1759 7.9447,21.5 13.4063,21.5 3.1229,0 4.8498,2.3817 2.9001,3.9998 -1.1799,0.9792 -5.76,1.103 -20.2623,0.5475 -10.3059,-0.3947 -19.1594,-1.1234 -19.6747,-1.6193 -0.5749,-0.5533 -0.042,-1.854 1.3802,-3.3677 l 2.3168,-2.4662 -4.2737,-17.2971 c -2.3505,-9.5133 -4.6749,-18.0845 -5.1653,-19.047 -0.7892,-1.549 -2.6105,-1.75 -15.8564,-1.75 -8.2306,0 -14.9648,0.1191 -14.9648,0.2647 0,0.1456 -1.3426,6.3331 -2.9835,13.75 -2.9995,13.5571 -3.739,22.2959 -2.1053,24.8758 0.4842,0.7648 2.6149,1.6724 4.7346,2.017 2.904,0.472 3.8542,1.096 3.8542,2.5311 0,1.7999 -1.0111,1.9107 -18.3656,2.0136 -13.7153,0.081 -18.4854,-0.2033 -18.8386,-1.1238 z M 1833,2969.0794 c 0,-1.2349 -11.1102,-47.4905 -11.5063,-47.9048 -0.1711,-0.1789 -0.5452,0.4961 -0.8314,1.5 -0.7934,2.7833 -10.6623,46.0253 -10.6623,46.7183 0,0.3339 5.175,0.6071 11.5,0.6071 6.3384,0 11.5,-0.4132 11.5,-0.9206 z m 242.2841,62.2185 c -0.7295,-1.9009 0.6275,-3.2979 3.2035,-3.2979 3.1743,0 5.2676,-2.2814 6.2231,-6.7821 0.4341,-2.0449 0.7893,-35.2971 0.7893,-73.8939 0,-69.7894 -0.012,-70.1915 -2.1057,-73 -1.1581,-1.5532 -3.4026,-3.0525 -4.9878,-3.3317 -2.8927,-0.5096 -4.7969,-3.9539 -2.2298,-4.0332 8.5651,-0.2647 43.2283,0.1126 43.5902,0.4745 1.1713,1.1713 -0.9271,3.5664 -3.1247,3.5664 -1.3314,0 -3.483,0.8601 -4.7814,1.9114 -2.2581,1.8281 -2.3892,2.644 -3.0145,18.75 -0.8289,21.3527 -0.8233,74.4676 0.011,106.5101 0.6295,24.1711 0.6907,24.7228 3.0171,27.1971 1.5095,1.6055 3.6953,2.6359 6,2.8285 2.8578,0.2388 3.6254,0.7264 3.6254,2.3029 0,1.9417 -0.6667,2 -22.8773,2 -16.8932,0 -22.9979,-0.3144 -23.3386,-1.2021 z m 517.0001,0 c -0.7116,-1.8537 0.6054,-3.2963 3.0248,-3.3132 1.2051,-0.01 2.7253,-0.3551 3.3784,-0.7704 3.5608,-2.2641 3.7453,-5.5268 4.1125,-72.7143 0.1983,-36.3 0.057,-68.8755 -0.3142,-72.39 -0.7547,-7.146 -3.5441,-11.11 -7.8178,-11.11 -2.7795,0 -5.3864,-2.4379 -3.7129,-3.4722 1.2389,-0.7657 45.0141,-0.8921 45.774,-0.1322 1.2027,1.2028 -0.854,3.6044 -3.0868,3.6044 -1.3314,0 -3.4805,0.8582 -4.7759,1.9072 -2.3292,1.886 -2.3653,2.2165 -3.262,29.8846 -0.4987,15.3876 -0.6279,28.7044 -0.2869,29.5929 0.5428,1.4145 3.172,1.6153 21.1512,1.6153 H 2667 l -0.01,-26.25 c -0,-14.9777 -0.4493,-27.8477 -1.0388,-29.9705 -1.1804,-4.2501 -4.1917,-6.7795 -8.0711,-6.7795 -2.643,0 -4.6399,-2.4151 -2.8907,-3.4961 1.1569,-0.715 45.0123,-0.8311 45.7224,-0.121 1.2134,1.2133 -0.8295,3.6171 -3.074,3.6171 -1.3314,0 -3.4665,0.8469 -4.7448,1.882 -2.2141,1.7929 -2.3654,2.7521 -3.1939,20.25 -1.1201,23.6568 -0.092,124.076 1.3218,129.0819 1.2291,4.3523 2.1152,5.0341 7.4747,5.751 3.155,0.4221 4,0.9576 4,2.5351 0,1.9431 -0.654,1.9989 -22.9936,1.9619 -20.9066,-0.035 -23.0237,-0.1938 -23.3239,-1.753 -0.3348,-1.7381 0.216,-2.0839 4.9676,-3.1193 4.6509,-1.0136 5.0692,-4.1018 5.6025,-41.3603 l 0.4904,-34.2706 -20.8715,0.2706 -20.8715,0.2707 0.3023,33 c 0.1672,18.2404 0.7491,34.4178 1.3012,36.17 1.2729,4.04 3.0833,5.5126 7.6989,6.2629 2.8183,0.4581 3.6976,1.0726 3.6976,2.5841 0,1.9196 -0.7319,1.983 -22.8772,1.983 -16.8931,0 -22.9978,-0.3144 -23.3386,-1.2021 z m 170.9999,0 c -0.7295,-1.9009 0.6275,-3.2979 3.2035,-3.2979 3.1743,0 5.2676,-2.2814 6.2231,-6.7821 0.4341,-2.0449 0.7893,-35.2971 0.7893,-73.8939 0,-69.7894 -0.012,-70.1915 -2.1057,-73 -1.1581,-1.5532 -3.4026,-3.0525 -4.9878,-3.3317 -2.8927,-0.5096 -4.7969,-3.9539 -2.2298,-4.0332 8.5651,-0.2647 43.2283,0.1126 43.5902,0.4745 1.1713,1.1713 -0.9271,3.5664 -3.1247,3.5664 -1.3314,0 -3.483,0.8601 -4.7814,1.9114 -2.2581,1.8281 -2.3892,2.644 -3.0145,18.75 -0.8289,21.3527 -0.8233,74.4676 0.011,106.5101 0.6295,24.1711 0.6907,24.7228 3.0171,27.1971 1.5095,1.6055 3.6953,2.6359 6,2.8285 2.8578,0.2388 3.6254,0.7264 3.6254,2.3029 0,1.9417 -0.6667,2 -22.8773,2 -16.8932,0 -22.9979,-0.3144 -23.3386,-1.2021 z m 240.0002,0 c -0.7117,-1.8537 0.6053,-3.2963 3.0247,-3.3132 1.2051,-0.01 2.7253,-0.3551 3.3784,-0.7704 3.5658,-2.2672 3.7384,-5.4475 4.1019,-75.5497 l 0.3569,-68.8354 -12.1575,0.3354 -12.1575,0.3354 -2.8946,3.2423 c -1.592,1.7832 -3.1742,4.4832 -3.5159,6 -1.901,8.438 -2.6315,10.4469 -3.4876,9.5908 -1.0939,-1.0939 1.9684,-36.5679 3.2689,-37.8685 0.2069,-0.2068 2.3081,0.2896 4.6694,1.1031 3.5616,1.2271 10.6285,1.4232 41.461,1.1505 20.4422,-0.1808 38.0676,-0.5288 39.1676,-0.7735 1.9545,-0.4346 1.9932,-0 1.7032,19.0187 -0.1632,10.7049 -0.5007,19.6674 -0.75,19.9167 -0.954,0.9541 -1.4973,-0.7948 -2.3456,-7.5502 -1.5114,-12.0369 -3.4419,-13.4081 -19.8576,-14.1044 l -11.25,-0.4772 0.086,47.8759 c 0.047,26.3317 0.3886,57.9305 0.7583,70.2195 l 0.6723,22.3438 2.7975,2.4062 c 1.5386,1.3235 3.7848,2.4132 4.9917,2.4216 2.9708,0.021 5.0365,1.4581 4.4826,3.119 -0.624,1.8712 -45.7875,2.03 -46.5041,0.1636 z m 285.9999,0 c -0.7296,-1.9008 0.6274,-3.2979 3.2034,-3.2979 2.8705,0 5.2489,-2.2109 6.2609,-5.8199 0.4133,-1.4741 0.7515,-34.6497 0.7515,-73.7237 0,-66.1705 -0.1209,-71.2282 -1.7626,-73.7341 -0.9695,-1.4798 -2.9945,-2.9495 -4.5,-3.266 -1.5056,-0.3165 -3.3606,-0.9025 -4.1222,-1.3022 -4.0921,-2.1476 1.2298,-2.6541 27.8848,-2.6541 27.9225,0 28.596,0.048 33.2383,2.3546 21.2792,10.5744 23.9426,52.9584 4.8366,76.9674 l -4.2352,5.322 7.24,17.678 c 17.2972,42.2349 26.2019,58.178 32.494,58.178 1.1998,0 2.6758,0.5957 3.2801,1.3238 2.1214,2.5562 -0.8849,3.6771 -9.8038,3.6554 -11.2882,-0.028 -19.9817,-1.927 -24.4627,-5.3448 -4.7934,-3.6561 -10.6335,-15.9221 -19.0287,-39.9656 -3.6163,-10.3571 -7.0372,-19.6946 -7.6021,-20.75 -0.8054,-1.505 -2.1219,-1.9188 -6.1049,-1.9188 h -5.078 l 0.4402,27.75 c 0.3134,19.7539 0.81,28.5106 1.7235,30.3897 1.3312,2.7385 4.8182,4.8603 7.9873,4.8603 2.5854,0 4.5913,2.5526 2.874,3.6572 -2.1661,1.3932 -44.9714,1.0553 -45.5144,-0.3593 z m 50.4165,-82.5479 c 3.1672,-3.4772 3.9876,-5.6365 5.3376,-14.0479 1.7282,-10.7678 0.7533,-29.1663 -2.013,-37.9881 -1.5631,-4.9847 -3.2784,-7.9866 -6.4622,-11.3094 -4.1189,-4.2988 -4.5759,-4.5082 -9.1987,-4.2141 l -4.8644,0.3095 -0.2634,33.211 -0.2635,33.211 2.7635,1.499 c 1.5199,0.8244 5.0475,1.5169 7.8391,1.539 4.0214,0.032 5.5014,-0.4274 7.125,-2.21 z m 97.5834,82.5479 c -0.7295,-1.9009 0.6275,-3.2979 3.2035,-3.2979 3.1743,0 5.2676,-2.2814 6.2231,-6.7821 0.4341,-2.0449 0.7893,-35.2971 0.7893,-73.8939 0,-69.7894 -0.012,-70.1915 -2.1057,-73 -1.1581,-1.5532 -3.4026,-3.0525 -4.9878,-3.3317 -2.8927,-0.5096 -4.7969,-3.9539 -2.2298,-4.0332 8.5651,-0.2647 43.2283,0.1126 43.5902,0.4745 1.1713,1.1713 -0.9271,3.5664 -3.1247,3.5664 -1.3314,0 -3.483,0.8601 -4.7814,1.9114 -2.2581,1.8281 -2.3892,2.644 -3.0145,18.75 -0.8289,21.3527 -0.8233,74.4676 0.011,106.5101 0.6295,24.1711 0.6907,24.7228 3.0171,27.1971 1.5095,1.6055 3.6953,2.6359 6,2.8285 2.8578,0.2388 3.6254,0.7264 3.6254,2.3029 0,1.9417 -0.6667,2 -22.8773,2 -16.8932,0 -22.9979,-0.3144 -23.3386,-1.2021 z m 242.0117,0.03 c -0.7737,-2.0162 0.6412,-3.3284 3.5889,-3.3284 3.3705,0 6.3446,-2.9851 8.9791,-9.0125 1.0789,-2.4681 9.679,-34.6375 19.1115,-71.4875 18.2559,-71.3206 21.4729,-83.0409 23.0631,-84.0237 0.5519,-0.3411 1.6758,0.9888 2.4975,2.9555 0.8218,1.9666 8.9313,32.4865 18.0213,67.8219 9.09,35.3355 17.4764,67.8463 18.6366,72.2463 4.0013,15.1759 7.9447,21.5 13.4063,21.5 3.1229,0 4.8498,2.3817 2.9001,3.9998 -1.1799,0.9792 -5.76,1.103 -20.2623,0.5475 -10.3059,-0.3947 -19.1594,-1.1234 -19.6747,-1.6193 -0.5749,-0.5533 -0.042,-1.854 1.3802,-3.3677 l 2.3168,-2.4662 -4.2737,-17.2971 c -2.3505,-9.5133 -4.6749,-18.0845 -5.1653,-19.047 -0.7892,-1.549 -2.6105,-1.75 -15.8564,-1.75 -8.2306,0 -14.9648,0.1191 -14.9648,0.2647 0,0.1456 -1.3426,6.3331 -2.9835,13.75 -2.9995,13.5571 -3.739,22.2959 -2.1053,24.8758 0.4842,0.7648 2.6149,1.6724 4.7346,2.017 2.904,0.472 3.8542,1.096 3.8542,2.5311 0,1.7999 -1.0111,1.9107 -18.3656,2.0136 -13.7153,0.081 -18.4854,-0.2033 -18.8386,-1.1238 z M 3740,2969.0794 c 0,-1.2349 -11.1102,-47.4905 -11.5063,-47.9048 -0.1711,-0.1789 -0.5452,0.4961 -0.8314,1.5 -0.7934,2.7833 -10.6623,46.0253 -10.6623,46.7183 0,0.3339 5.175,0.6071 11.5,0.6071 6.3384,0 11.5,-0.4132 11.5,-0.9206 z m 115.5,61.8115 c -7.7777,-1.1217 -18.1355,-4.3123 -22.25,-6.8539 -2.9447,-1.819 -3.25,-2.4637 -3.25,-6.8626 0,-10.8653 7.9219,-20.9858 35,-44.7134 14.8659,-13.0266 55.015,-52.967 77.8656,-77.461 9.5678,-10.2558 18.9662,-21.4558 22.7042,-27.0561 18.2698,-27.3722 36.34,-78.4054 43.0019,-121.4439 2.603,-16.8165 1.2354,-46.6952 -5.6069,-122.5 -7.6947,-85.2481 -12.8152,-127.1725 -19.6029,-160.5 -15.77,-77.4298 -46.5106,-208.8464 -58.7133,-251 -5.2634,-18.1823 -7.4547,-23.5 -9.6839,-23.5 -3.1686,0 -14.6696,11.7377 -24.9654,25.4792 -26.5312,35.4104 -46.6711,69.3304 -63.4777,106.9103 -3.6624,8.1893 -11.2629,23.9393 -16.89,35 -5.6271,11.0608 -13.5389,28.4355 -17.5818,38.6105 -7.4768,18.8173 -24.0106,67.5547 -30.4348,89.7138 -6.8356,23.5782 -9.0515,44.3916 -7.5003,70.4492 2.1481,36.0876 1.3769,44.1712 -5.5658,58.337 -3.8201,7.7944 -9.3057,14.7104 -24.6565,31.0864 -7.11,7.5848 -12.4454,14.4856 -16.8924,21.8487 -10.5263,17.429 -16.0783,24.7637 -21.5129,28.421 -4.5616,3.0697 -5.4698,3.3131 -10.6444,2.8532 -17.1465,-1.524 -44.0493,-27.3671 -57.2474,-54.9926 -9.9734,-20.8757 -13.3458,-42.7133 -12.3002,-79.6467 0.6274,-22.158 2.5099,-39.1339 8.7683,-79.07 11.2247,-71.6273 11.4775,-84.2949 2.8841,-144.5 -6.0022,-42.0513 -18.5993,-108.8477 -32.9076,-174.4935 -5.3404,-24.5011 -7.5672,-32.9782 -9.0532,-34.4643 -4.6808,-4.6807 -21.4064,-0.6909 -35.2981,8.4203 -29.6643,19.4559 -70.4874,74.1386 -80.0809,107.2687 -9.8874,34.1453 -19.4966,167.8253 -18.3853,255.7688 0.4799,37.9742 0.7341,39.6119 9.3841,60.4572 7.7589,18.6979 9.5809,25.1241 10.1445,35.7781 1.2052,22.7842 -2.8114,29.9822 -26.751,47.9397 -6.325,4.7444 -17.8,13.4034 -25.5,19.242 -17.536,13.2969 -28.7486,18.936 -49.8997,25.096 -8.7449,2.5468 -20.8949,6.3944 -27,8.5502 -6.1052,2.1558 -12.2576,3.9235 -13.6722,3.9282 -14.3451,0.048 -33.0996,-20.1962 -50.4923,-54.5029 -9.9927,-19.7104 -10.9579,-24.1155 -10.843,-49.4885 0.084,-18.5128 0.4996,-23.3112 4.2894,-49.5 2.3082,-15.95 5.5484,-41.15 7.2004,-56 5.0985,-45.8321 10.2835,-81.7049 23.4151,-162 8.0798,-49.4048 9.0662,-56.682 10.9117,-80.5 2.8162,-36.3468 3.9315,-66.3764 4.0112,-108 0.086,-44.7638 -0.6568,-54.6991 -4.861,-65.0456 -4.6765,-11.509 -17.0529,-26.586 -31.58,-38.4711 -7.7875,-6.3712 -7.74,-6.2497 -8.8127,-22.5571 -1.2159,-18.4864 -0.84,-20.3932 5.1981,-26.3665 9.8107,-9.7052 37.618,-26.867 73.135,-45.1366 47.2631,-24.3117 83.5457,-34.7901 103.897,-30.0053 8.6096,2.0243 17.7197,6.7986 19.7831,10.3678 0.863,1.4929 1.8843,6.4587 2.2694,11.0351 0.3852,4.5764 1.3239,10.4264 2.086,13 3.565,12.0381 6.49,37.9657 8.4815,75.1793 0.6328,11.825 1.4503,26.1494 1.8168,31.8321 l 0.6662,10.3321 25.3031,-26.5502 c 37.7578,-39.6188 73.6784,-73.7071 92.3241,-87.6145 4.1949,-3.1289 14.5449,-9.5307 23,-14.2261 42.1626,-23.4146 57.1186,-28.5025 80.9554,-27.5407 14.1638,0.5716 20.5608,2.996 26.0685,9.8797 5.4168,6.7701 14.37,19.9436 16.5747,24.3876 9.5018,19.1529 20.2293,105.7101 29.3053,236.4545 1.1245,16.2 2.1466,29.5565 2.2713,29.6812 0.1246,0.1247 3.3361,-5.2549 7.1366,-11.9545 51.0494,-89.991 111.9483,-177.2749 150.4988,-215.7037 19.4217,-19.3604 39.7077,-34.5719 61.0622,-45.7876 19.2385,-10.1044 41.4074,-17.1899 53.7831,-17.1899 6.3307,0 6.6426,0.122 10.393,4.0644 32.7857,34.465 79.9169,295.7162 90.8225,503.4356 0.5775,11 1.4665,37.325 1.9755,58.5 0.6391,26.5866 2.1629,55.6739 4.9246,94 5.2077,72.2735 6.1013,90.4129 6.1013,123.8549 0,30.8498 -1.1914,50.0895 -3.9487,63.7656 -7.1968,35.6967 -40.2158,83.5986 -96.0749,139.3795 -30.0473,30.0052 -60.9158,56.4191 -77.4764,66.2958 -3.85,2.2961 -15.325,10.444 -25.5,18.1064 -22.9065,17.2499 -32.408,23.4984 -44.2523,29.1018 -18.5064,8.7552 -39.3432,12.1131 -58.2477,9.3869 z M 2223.4927,2850.9882 c -1.8546,-3.0008 19.0955,-37.9882 22.7469,-37.9882 1.2169,0 6.4804,11.6243 7.6365,16.8647 0.8785,3.9826 0.7827,4.4118 -1.0952,4.9028 -4.133,1.0808 -15.6374,7.9712 -26.7829,16.0412 -1.3148,0.952 -1.9976,1.001 -2.5053,0.1795 z m 945,0 c -1.8546,-3.0008 19.0955,-37.9882 22.7469,-37.9882 1.2169,0 6.4804,11.6243 7.6365,16.8647 0.8785,3.9826 0.7827,4.4118 -1.0952,4.9028 -4.133,1.0808 -15.6374,7.9712 -26.7829,16.0412 -1.3148,0.952 -1.9976,1.001 -2.5053,0.1795 z M 1292.0652,2709.9331 c -22.7878,-4.0664 -57.1296,-22.4284 -78.352,-41.8934 -15.0006,-13.7585 -27.0442,-33.6424 -30.3035,-50.0312 -3.6761,-18.4846 -0.523,-45.6231 39.0973,-336.5085 41.4699,-304.4645 42.6851,-314.9475 57.4975,-496 24.9655,-305.1549 26.1787,-316.2242 36.8209,-335.9601 3.6447,-6.759 12.5947,-15.7056 18.9163,-18.909 11.7846,-5.9717 24.0849,-6.7829 62.2583,-4.1057 64.6717,4.5355 103.4085,12.2855 105.6291,21.133 0.9425,3.7555 -0.262,29.4179 -2.1283,45.3418 -8.7358,74.539 -31.7099,214.9944 -70.0891,428.5 -11.4712,63.8145 -15.7405,85.9305 -31.7553,164.5 -25.2395,123.8259 -36.3358,204.5628 -38.2765,278.5 -1.5398,58.6655 4.8948,95.5189 23.2607,133.2221 12.4732,25.606 32.1044,49.9827 49.2085,61.1037 5.0776,3.3015 6.3103,3.6688 12.1509,3.6209 13.8001,-0.1132 32.4552,-11.9345 54.5916,-34.5933 12.5208,-12.8163 20.6236,-22.7695 30.4035,-37.3461 32.4366,-48.3459 46.8786,-93.1334 52.0793,-161.5073 1.7208,-22.6251 0.6656,-70.1314 -1.9933,-89.7327 -9.0538,-66.745 -31.8484,-109.6787 -67.542,-127.2152 -24.2438,-11.9113 -56.5487,-11.6681 -80.8427,0.6085 l -4.8035,2.4274 0.5939,-3.294 c 0.3266,-1.8117 4.8162,-28.494 9.9769,-59.294 l 9.3831,-56 3.3266,-2.7839 c 1.8296,-1.5311 7.3766,-5.5932 12.3266,-9.027 65.7032,-45.5773 126.9074,-67.1536 166.9128,-58.8418 18.417,3.8265 32.4804,12.5733 43.2983,26.9298 19.7038,26.1489 50.5009,90.5824 66.7267,139.605 5.6807,17.1628 10.468,48.2358 13.5599,88.0131 1.2989,16.7114 1.2715,62.722 -0.047,78.1048 -10.378,121.1173 -67.2309,222.9496 -181.4511,325.007 -28.9179,25.8386 -60.0403,48.2254 -101.5,73.0104 -27.8137,16.6274 -47.2346,25.2934 -82.5697,36.8444 -41.064,13.4238 -78.2085,19.8113 -96.3651,16.5713 z M 1857,2703.1122 c -6.325,-2.119 -13.593,-4.7761 -16.1511,-5.9046 -14.7346,-6.4999 -27.6695,-18.4398 -33.7343,-31.1389 l -3.6146,-7.5687 0.1184,-21.5 c 0.2135,-38.7583 6.2061,-104.8694 29.822,-329 17.0383,-161.7049 22.5596,-219.6834 22.5596,-236.895 0,-16.2858 -6.7889,-32.0151 -19.1555,-44.3818 -4.3145,-4.3144 -7.8445,-8.0149 -7.8445,-8.2232 0,-0.921 54.4708,-40.0452 79.5,-57.1016 56.2798,-38.3526 90.3192,-57.3984 102.5848,-57.3984 10.0063,0 23.2686,10.9203 28.189,23.211 3.4303,8.5688 5.6163,19.6006 6.3497,32.0446 0.9579,16.2527 -1.0397,28.3587 -22.7294,137.7444 -36.9276,186.2338 -45.0595,247.1398 -42.0236,314.7501 2.1729,48.392 5.1975,71.0784 19.6982,147.7499 3.4014,17.9844 3.5678,19.8286 3.1129,34.5 -0.7628,24.6015 -5.7664,45.6324 -13.8221,58.0961 -4.6629,7.2144 -9.8804,10.7646 -32.8595,22.3587 -27.9791,14.1168 -55.419,25.3723 -71.7188,29.418 -14.2178,3.529 -15.587,3.4922 -28.2812,-0.7606 z m 1079.5,-2.7471 c -46.7627,-5.0062 -81.0091,-21.7267 -105.8234,-51.6673 -49.2375,-59.4096 -76.6788,-127.122 -83.7667,-206.6978 -2.722,-30.5606 -0.9913,-78.6731 4.1729,-116 13.0297,-94.1786 33.3773,-151.0935 74.7178,-208.9953 10.7672,-15.0806 34.2868,-44.8218 55.7556,-70.5047 15.0262,-17.9757 38.9436,-42.1721 53.9438,-54.573 34.9885,-28.9257 77.2518,-52.9248 115,-65.3026 20.1492,-6.607 28.8186,-8.0337 49,-8.0634 17.0093,-0.025 18.4475,0.1241 26.1305,2.712 14.7572,4.9705 29.914,17.2001 40.1948,32.4319 10.2784,15.2284 20.722,41.4275 25.1184,63.0129 7.3293,35.9857 6.648,81.6322 -1.9763,132.4188 -1.0869,6.4002 -2.6331,13.4988 -3.4361,15.7748 -6.4831,18.3749 -24.456,45.4161 -49.9077,75.0886 -12.8649,14.9984 -43.3022,45.0676 -55.6236,54.951 -13.1739,10.5672 -36.4334,25.914 -58.5,38.599 -23.0314,13.2396 -71.5152,37.8465 -72.5033,36.7975 -1.3656,-1.4498 -3.8043,-15.3149 -4.9888,-28.3631 -0.6232,-6.8664 -0.9925,-21.1584 -0.8206,-31.76 l 0.3127,-19.2757 13.0664,-5.7943 c 29.2061,-12.9514 54.2958,-28.0766 66.4588,-40.0645 7.6812,-7.5706 12.5991,-16.7186 15.9073,-29.5899 8.7601,-34.0838 7.4052,-83.8281 -3.0076,-110.4225 -3.3018,-8.4329 -18.1103,-30.0569 -26.4628,-38.6422 -8.5834,-8.8225 -17.4141,-11.5713 -25.8503,-8.0465 -14.8101,6.1881 -42.628,60.0615 -52.0981,100.8958 -5.0203,21.647 -9.5066,83.1461 -9.4991,130.2154 0.013,80.8686 10.2753,142.0985 29.4983,176 9.8481,17.3678 30.0314,41.7188 46.394,55.974 33.8222,29.4659 61.7247,40.7597 100.5931,40.7163 16.706,-0.019 31.047,-1.8455 45.5,-5.7961 5.225,-1.4282 10.1298,-2.6637 10.8997,-2.7455 0.8887,-0.094 4.6311,6.6812 10.2513,18.56 l 8.8516,18.7087 -4.7513,4.4273 c -9.5045,8.8565 -32.6544,28.8096 -47.3818,40.8389 -32.2403,26.3338 -55.734,42.886 -72.3695,50.9871 -10.6287,5.1759 -19.512,7.1709 -50.5,11.3412 -11.979,1.6122 -53.3055,2.8375 -62.5,1.8532 z m -615.5,-9.0044 c -1.375,-0.2019 -5.875,-0.8516 -10,-1.4439 -17.3226,-2.4874 -37.8535,-8.8873 -54.5,-16.9889 -27.5688,-13.4172 -47.5027,-30.7715 -74.6542,-64.9935 -45.6942,-57.5933 -71.7704,-119.5875 -77.9105,-185.2267 -1.7014,-18.1876 -0.6843,-57.2032 1.9534,-74.9326 11.1661,-75.0548 45.8405,-148.786 101.2399,-215.2751 17.3897,-20.8707 48.6216,-50.9937 74.3714,-71.7307 31.1086,-25.0525 73.1854,-53.1146 115.5486,-77.0622 17.008,-9.6146 47.0555,-24.7608 47.9834,-24.1873 1.4317,0.8848 10.6331,18.6897 15.2438,29.4971 3.9137,9.1734 14.3,39.6077 16.0802,47.1187 0.6146,2.5931 0.4193,2.704 -12.1049,6.8688 -61.4953,20.4497 -112.4353,58.9164 -140.6645,106.221 -18.1678,30.4445 -34.6236,79.7814 -42.0238,125.9939 -7.5259,46.9978 -5.6975,104.7022 4.521,142.6766 12.6551,47.0298 60.6222,98.2743 109.0522,116.5033 19.9171,7.4968 41.2833,7.4894 56.1012,-0.019 32.9774,-16.7109 55.0806,-88.7307 64.7199,-210.8798 9.5549,-121.079 -0.046,-224.5538 -30.571,-329.4798 -5.5117,-18.946 -8.7435,-27.1606 -16.5263,-42.007 -23.0356,-43.9423 -63.0164,-100.3323 -153.7469,-216.8483 -68.8336,-88.3961 -71.4281,-92.0607 -86.4889,-122.1649 -13.7291,-27.4425 -23.0143,-54.0104 -28.6421,-81.9544 -1.6112,-8.0001 -3.0537,-17.212 -3.2057,-20.471 l -0.2762,-5.9254 112,-81.8918 c 61.6,-45.0406 113.2515,-82.8022 114.7811,-83.9149 l 2.7811,-2.023 12.9415,26.5735 12.9415,26.5735 -4.7687,6.3003 c -5.9001,7.7951 -14.2089,23.8087 -17.6094,33.9386 -4.794,14.281 -5.9068,21.3291 -5.9893,37.9346 l -0.078,15.6399 4.761,9.3601 c 5.9972,11.7902 16.3927,26.0608 52.3472,71.86 50.4481,64.2613 80.6167,105.6392 105.0531,144.0859 35.285,55.5152 58.1795,102.0372 75.9658,154.3638 37.9383,111.6127 49.9155,228.7512 34.8063,340.4091 -17.1379,126.6508 -68.7202,244.4503 -150.9121,344.6412 -37.7124,45.9709 -87.1069,92.2504 -128.5213,120.416 -19.6018,13.3311 -32.2939,18.5607 -52.2306,21.521 -9.5021,1.411 -36.5599,1.9819 -43.7694,0.9237 z"
       id="path1" />
  </g>
</svg>
